<svg width="8" height="7" viewBox="0 0 8 7" fill="none" xmlns="http://www.w3.org/2000/svg">
    <path d="M7.85549 0.846418L7.15356 0.144495C7.05732 0.0481772 6.94026 0 6.80267 0C6.66496 0 6.5479 0.0481772 6.45166 0.144495L3.06581 3.53547L1.54838 2.01287C1.45202 1.91651 1.33504 1.86839 1.19745 1.86839C1.05977 1.86839 0.942791 1.91651 0.846436 2.01287L0.144514 2.71481C0.0481591 2.81114 0 2.92816 0 3.06582C0 3.20338 0.0481591 3.3205 0.144514 3.41682L2.01287 5.28514L2.71484 5.98706C2.81114 6.08345 2.92816 6.13157 3.06581 6.13157C3.20339 6.13157 3.32041 6.08332 3.41677 5.98706L4.11873 5.28514L7.85549 1.5484C7.95175 1.45204 8 1.33504 8 1.19738C8.00007 1.05979 7.95175 0.942773 7.85549 0.846418Z" fill="#00B8C2"/>
 </svg>
    